
<svg xmlns="http://www.w3.org/2000/svg" width="100" height="100" viewBox="0 0 32 32">
<style>
  .favicon {
    fill: #000000;
  }

  @media (prefers-color-scheme: dark) {
    .favicon {
      fill: #FFFFFF;
    } 
  }
</style>
<path d="M0,22.09H.44C1.89,28.36,10,29.33,15.2,29.33c6.23,0,12.26-1.29,12.26-6.15C27.46,14.33,1,22.37,1,9.23,1,2,9.65.3,16.6.3c5,0,8.73.93,11.5,2.57A1.35,1.35,0,0,0,29,2.19h.44V8.82H29C27.66,3.28,20.42,2.63,16.6,2.63,10.77,2.63,5.51,4.24,5.51,7.7c0,8.88,26.49.88,26.49,14,0,8.28-9.53,10-16.76,10S3.1,30.29.12,28.72Z" class="favicon"></path>
</svg>